<?xml version="1.0" encoding="UTF-8" standalone="no"?>
<!-- Created with Inkscape (http://www.inkscape.org/) -->

<svg
   width="646.1347"
   height="657.42767"
   viewBox="0 0 646.1347 657.42767"
   version="1.1"
   id="svg1"
   inkscape:version="1.4-beta3 (01c8a1ca, 2024-08-28)"
   sodipodi:docname="ICTML_logo_2024.svg"
   xmlns:inkscape="http://www.inkscape.org/namespaces/inkscape"
   xmlns:sodipodi="http://sodipodi.sourceforge.net/DTD/sodipodi-0.dtd"
   xmlns:xlink="http://www.w3.org/1999/xlink"
   xmlns="http://www.w3.org/2000/svg"
   xmlns:svg="http://www.w3.org/2000/svg">
  <sodipodi:namedview
     id="namedview1"
     pagecolor="#808080"
     bordercolor="#ffffff"
     borderopacity="1"
     inkscape:showpageshadow="0"
     inkscape:pageopacity="0"
     inkscape:pagecheckerboard="1"
     inkscape:deskcolor="#404040"
     inkscape:document-units="px"
     showborder="true"
     inkscape:zoom="0.39450962"
     inkscape:cx="223.06174"
     inkscape:cy="643.83728"
     inkscape:window-width="1728"
     inkscape:window-height="1051"
     inkscape:window-x="0"
     inkscape:window-y="38"
     inkscape:window-maximized="1"
     inkscape:current-layer="layer8">
    <inkscape:page
       x="0"
       y="0"
       width="646.1347"
       height="657.42767"
       id="page2"
       margin="0"
       bleed="0" />
  </sodipodi:namedview>
  <defs
     id="defs1">
    <linearGradient
       id="linearGradient13"
       inkscape:collect="always">
      <stop
         style="stop-color:#404040;stop-opacity:1;"
         offset="0"
         id="stop13" />
      <stop
         style="stop-color:#bfbfbf;stop-opacity:1;"
         offset="1"
         id="stop14" />
    </linearGradient>
    <linearGradient
       inkscape:collect="always"
       xlink:href="#linearGradient13"
       id="linearGradient14"
       x1="593.83594"
       y1="269.42969"
       x2="590.8504"
       y2="884.60052"
       gradientUnits="userSpaceOnUse" />
    <mask
       maskUnits="userSpaceOnUse"
       id="mask16">
      <path
         id="path16"
         style="font-size:400px;line-height:1.25;font-family:'Playfair Display';-inkscape-font-specification:'Playfair Display';font-variation-settings:'wght' 400;white-space:pre;fill:#ffffff;stroke-width:1"
         d="m 510.30469,263.84961 c -18.07813,0.25744 -36.22538,4.44555 -52.37696,13.17773 -18.00055,9.64756 -33.30125,24.56484 -44.57031,42.23633 -10.44134,16.22868 -17.77005,34.63309 -21.8457,53.77735 -4.25814,19.77728 -5.29519,40.21296 -4.2832,60.43164 1.1071,21.24224 4.87895,42.53732 12.98632,62.08789 6.438,15.44758 15.58864,29.68978 27.13672,41.35547 10.47156,10.59946 22.99635,18.85829 36.50782,24.34765 15.06574,6.17948 31.26865,8.85943 47.38085,8.96485 10.4221,0.002 20.92606,-0.80547 31.04493,-3.58399 5.53838,-1.4959 10.89041,-3.70627 15.96484,-6.48828 9.4441,-4.98875 18.51113,-10.76048 27.18164,-17.12891 1.30331,-0.76813 2.60263,-1.70655 4.12109,-1.88672 1.29642,2.31493 1.88215,4.99095 2.41016,7.60157 0.95421,5.25475 1.3559,10.55522 1.86523,15.88867 6.58451,10e-6 13.16942,10e-6 19.75391,0 -1.41957,-27.20801 -1.65247,-54.46282 -1.75976,-81.72266 -0.0267,-8.7595 -0.0284,-17.51781 -0.0469,-26.27734 -6.45551,1e-5 -12.91168,0 -19.36719,0 -0.6254,5.68758 -1.2456,11.34998 -1.98242,16.95312 -1.30722,9.87278 -2.87626,19.92747 -5.54492,29.58204 -2.12308,7.52083 -5.87823,14.41744 -10.38086,20.61132 -1.2025,1.73052 -2.51187,3.37549 -3.90625,4.93555 -0.51591,0.58054 -1.2425,1.35489 -1.86914,1.98242 -0.29546,0.29317 -0.71674,0.71229 -1.01563,0.99805 -5.57774,5.35876 -12.2542,9.34251 -19.34765,11.9668 -7.16986,2.74723 -14.60272,4.78497 -22.16797,5.83007 -1.54124,0.21312 -3.29182,0.39492 -4.92188,0.52149 -3.7594,0.28544 -7.6961,0.28631 -11.35546,-0.0215 -9.57761,-0.80038 -19.02622,-3.78186 -27.34766,-8.89453 -4.64049,-2.97673 -8.93364,-6.54875 -12.83008,-10.54492 -0.2691,-0.29097 -0.80485,-0.84641 -1.17578,-1.23828 -5.53387,-5.94285 -10.27637,-12.70138 -14.08789,-20.00781 -3.6647,-6.96873 -6.68056,-14.50995 -9.11328,-22.12891 -0.25371,-0.83224 -0.62369,-1.9905 -0.87695,-2.83789 -1.95885,-6.47107 -3.5266,-13.0713 -4.73829,-19.74414 -0.31673,-1.80574 -0.66408,-3.81174 -0.94531,-5.70508 -0.44813,-2.91919 -0.85912,-6.0281 -1.18555,-8.97461 -0.68286,-6.06579 -1.11763,-12.04095 -1.38671,-18.13281 -0.10946,-2.51055 -0.19809,-4.99647 -0.23047,-7.44922 -0.10946,-5.16977 -0.0714,-10.3405 0.043,-15.50976 0.0444,-1.65249 0.11087,-3.52601 0.18164,-5.26172 0.41356,-10.08006 1.36015,-20.35972 2.91601,-30.4336 1.50156,-9.78307 3.82858,-19.57588 6.92578,-28.99609 3.05233,-9.33296 6.85377,-18.43617 11.81836,-26.8125 1.23408,-2.0275 2.52564,-4.03458 3.85157,-5.9043 6.65298,-9.44985 15.1683,-17.6109 25.2832,-22.66797 7.42725,-3.73622 15.63482,-5.63212 23.84765,-5.69726 14.90206,-0.20723 29.87482,3.35341 43.16797,10.52344 8.32023,4.63168 15.43012,11.50919 20.9375,19.54882 3.00249,4.22469 5.51274,8.83021 7.50196,13.67969 1.50536,3.4727 2.68901,7.23236 3.61132,10.83789 2.03511,8.19255 3.46614,16.53593 4.8379,24.87695 0.59167,3.63448 1.1538,7.27554 1.72265,10.91407 h 19.12695 c 0.0467,-25.61313 0.0344,-51.23093 0.72461,-76.83594 0.23882,-9.02034 0.64477,-18.11978 1.08789,-27.16406 h -19.74804 c -0.34008,3.48211 -0.66111,7.14527 -1.0625,10.50781 -0.61066,4.33312 -1.24629,8.78504 -3.16797,12.71875 -0.17471,0.70653 -0.70348,0.60225 -1.19336,0.31836 -2.0849,-0.95352 -3.69219,-2.55631 -5.51758,-3.92969 -9.5863,-7.62202 -20.2419,-13.64044 -31.28515,-18.51953 -13.08976,-5.44117 -27.35334,-6.81602 -41.30469,-6.67578 z m -144.94922,5.33203 -1.96289,0.084 c -19.55796,0.86309 -39.08722,1.50902 -58.67774,1.33399 -15.43897,-0.10406 -30.81581,-0.64859 -46.23828,-1.41406 -0.40619,1.10204 -0.84467,2.23604 -0.66601,3.44531 -0.0215,5.52931 -0.004,11.06 -0.01,16.58984 6.68025,0.29348 13.45827,0.24186 19.98047,2.00782 0.56461,0.15918 1.41216,0.41517 2.07422,0.6621 2.0511,0.77797 4.25992,1.72213 5.42773,3.80469 1.75687,2.97364 2.10466,6.56084 2.54492,9.96094 0.0631,0.66186 0.12967,1.22723 0.16602,1.79297 0.52813,6.80712 0.33497,13.64426 0.37305,20.4668 -0.002,63.65825 0.0142,127.31652 -0.0234,190.9746 -0.0948,4.25374 -0.29135,8.65623 -0.99805,12.91407 -0.54133,2.82914 -1.0887,5.93934 -3.1875,7.98633 -2.28832,2.1439 -5.43139,2.63868 -8.30664,3.33007 -5.951,1.19984 -12.01973,1.45716 -18.05078,1.88086 v 20.16797 c 6.77056,-0.66376 13.55621,-1.23468 20.35938,-1.28515 9.07679,-0.0728 18.1491,-0.4088 27.22656,-0.43165 11.23974,-0.0775 22.48066,0.10067 33.7168,0.38282 6.52279,0.0198 13.13581,0.20191 19.58593,0.72265 2.2152,0.18477 4.43806,0.38445 6.66602,0.58203 v -20.13867 c -7.04256,-0.49118 -14.15594,-0.78481 -21.04883,-2.52148 -2.04311,-0.58917 -4.26691,-1.18379 -5.67187,-3.00195 -1.93609,-2.26588 -2.3883,-5.40131 -2.92383,-8.29102 -0.27066,-1.65911 -0.43559,-3.33324 -0.57422,-5.00977 -0.02,-0.38554 -0.0787,-1.19912 -0.11328,-1.74804 -0.42112,-8.20034 -0.16228,-16.4154 -0.23633,-24.62305 9.1e-4,-61.59173 -0.0126,-123.18384 0.0273,-184.77539 0.0149,-1.05529 0.0471,-2.14105 0.082,-3.11328 0.20869,-4.50572 0.49812,-9.07129 1.73438,-13.41211 0.71098,-2.33208 2.01655,-4.64872 4.20312,-5.69336 2.47107,-1.22859 5.17193,-1.84558 7.84571,-2.35742 2.24432,-0.40451 4.57516,-0.64128 6.75976,-0.79102 2.24195,-0.14769 4.35042,-0.23503 6.61133,-0.32031 1.10131,-0.0428 2.20338,-0.0844 3.30469,-0.12695 z m 271.47656,0.0957 c 0.0712,0.75065 0.1436,1.49935 0.21485,2.25 v 0.002 c 0.80573,8.32557 1.56361,16.55775 1.94921,24.92578 0.25895,6.61482 0.56455,13.22678 0.85743,19.83984 0.31655,8.10818 0.28523,16.3302 -0.01,24.4961 -0.20297,5.68201 -0.11309,11.38416 -0.75781,17.03906 -0.25197,2.53592 -0.55168,5.06637 -0.82617,7.59961 h 20.13476 c 0.50347,-5.01487 0.96385,-10.01902 1.53711,-14.94922 0.43282,-3.8275 0.94514,-7.74033 1.51953,-11.55469 1.20783,-7.88629 2.6401,-15.89786 4.98047,-23.57031 1.92867,-6.33479 5.20739,-12.40812 10.24414,-16.52149 4.34799,-3.61195 9.77801,-5.30613 15.11133,-6.45898 1.66682,-0.3541 3.30397,-0.62562 4.88477,-0.83594 9.44786,-1.30537 18.99528,-0.80685 28.49414,-0.9082 0.65858,-0.0909 1.20412,-0.0625 0.96484,0.79883 -8.1e-4,74.26634 0.0106,148.53266 -0.0234,222.79883 -0.1399,6.50196 -0.42251,13.1373 -2.43554,19.33984 -0.74977,2.37908 -2.02714,4.6749 -4.08985,6.01562 -2.67587,1.86961 -5.93119,2.45815 -8.95508,3.14454 -7.45666,1.47783 -15.0546,1.79509 -22.61328,2.20703 v 20.1875 c 3.93299,-0.34911 7.76569,-0.68924 11.72461,-0.88672 7.62497,-0.44678 15.31934,-0.3371 23,-0.51953 19.54763,-0.4406 39.10389,-0.32414 58.65039,0.11914 4.91342,0.0201 9.83884,0.0873 14.69922,0.2832 3.72549,0.12878 7.44544,0.43168 11.16211,0.67578 0.62607,-0.0248 1.27507,-0.0993 1.67969,-0.66797 1.26342,-1.10004 1.94938,-2.85243 1.75,-4.57812 -0.0379,-4.87033 -0.01,-9.74089 -0.0176,-14.61133 -6.86647,-0.39279 -13.74336,-0.6522 -20.56055,-1.83789 -0.92623,-0.15449 -1.6621,-0.2979 -2.59179,-0.47852 -0.43802,-0.0955 -1.21049,-0.25044 -1.77539,-0.39843 -3.15462,-0.7888 -6.49855,-1.82165 -8.74024,-4.46485 -2.29113,-2.49353 -2.9113,-6.05233 -3.42969,-9.35547 -1.21859,-7.79695 -0.97365,-15.72914 -1.02148,-23.60156 0.0113,-71.38968 -1.5e-4,-142.77826 0.004,-214.16797 7.95951,0.0517 15.93073,-0.1922 23.88085,0.31836 6.62995,0.46814 13.47448,1.54284 19.72071,4.25 5.35776,2.37591 9.85246,6.73452 12.72461,12.06836 3.29594,6.02104 4.81117,12.88238 6.23828,19.61133 2.46342,12.01599 3.79462,24.21703 4.96289,36.47461 0.0673,0.69105 0.13577,1.38319 0.20312,2.07422 h 19.78321 c -0.49473,-9.20765 -1.05487,-18.36408 -1.32422,-27.58008 -0.0267,-1.65227 -0.0838,-3.52201 -0.0977,-5.25977 -0.1189,-9.84701 0.0726,-19.71284 0.44922,-29.52343 0.58217,-10.50909 1.49495,-20.93273 2.53516,-31.37891 -0.0937,-0.49334 0.46069,-1.50423 -0.12696,-1.60352 -2.08375,-0.40814 -4.1899,-0.87769 -6.32031,-0.64648 -26.06698,0.63839 -52.13896,1.29427 -78.21484,1.18945 -25.52749,-0.0103 -51.05478,0.0546 -76.58203,-0.0723 -21.18595,-0.17243 -42.36596,-0.79553 -63.54688,-1.27735 z M 257.80469,582.98438 v 2.11523 h -0.002 v 18.02148 c 7.52653,0.29348 15.16327,0.24186 22.51172,2.00782 0.63613,0.15918 1.59196,0.41517 2.33789,0.66211 2.31094,0.77797 4.79753,1.72212 6.11328,3.80468 1.97945,2.97364 2.37116,6.56084 2.86719,9.96094 0.0711,0.66186 0.14655,1.22723 0.1875,1.79297 0.59503,6.80712 0.37898,13.64426 0.42188,20.4668 -0.003,62.27738 0.0149,124.55483 -0.0274,186.83203 -0.15577,6.32449 -0.51731,12.72805 -2.35742,18.8457 -0.97848,3.04013 -3.12403,5.7717 -6.11914,7.29492 -3.11279,1.56437 -6.63998,2.18162 -10.07812,2.77539 -5.24431,0.81048 -10.56392,0.9945 -15.85743,1.34375 v 20.33399 c 4.23112,-0.44612 8.41329,-0.96941 12.6211,-1.19922 4.34151,-0.25928 8.61812,-0.28993 12.99414,-0.35547 13.6885,-0.46634 27.49488,-0.44447 41.23047,-0.0234 7.11941,0.11746 14.25236,0.11685 21.3457,0.78125 2.49207,0.2387 4.98319,0.49008 7.47656,0.71875 v -20.29687 c -8.444,-0.47072 -16.99201,-0.72174 -25.22265,-2.72657 -2.48886,-0.63534 -5.03115,-1.42158 -6.95703,-3.11132 -2.68986,-2.15 -4.40782,-5.2585 -4.91407,-8.53125 -0.42744,-1.92924 -0.74754,-3.97343 -0.95898,-5.82617 -0.92851,-8.16895 -0.56663,-16.39845 -0.64453,-24.59766 0.001,-55.70235 0.003,-111.40313 0.004,-167.10547 32.13429,77.85406 64.26672,155.70892 96.40235,233.5625 h 15.59765 c 30.55714,-77.1971 61.10888,-154.39598 91.66407,-231.59375 -0.003,61.18143 0.0114,122.36173 -0.0254,183.54297 -0.0298,1.35823 -0.071,2.59655 -0.125,3.96484 -0.0374,0.57199 -0.0949,1.64123 -0.12891,2.22071 -0.30448,3.93131 -0.76962,7.90771 -2.13086,11.65429 -0.8613,2.1644 -2.57656,4.06668 -4.9082,4.90235 -3.36832,1.35401 -7.03488,1.85782 -10.62891,2.38867 -5.50583,0.71445 -10.94919,0.94737 -16.49219,1.29297 v 20.16601 c 7.63103,-0.66396 15.27754,-1.23491 22.94532,-1.28515 10.67837,-0.0826 21.35381,-0.43024 32.0332,-0.4375 12.24522,-0.0598 24.48917,0.12275 36.73047,0.38867 7.3293,0.0201 14.70632,0.206 21.98242,0.72265 2.40567,0.18155 4.99729,0.38505 7.48633,0.58204 v -20.13868 c -8.58348,-0.55738 -17.30365,-0.78326 -25.62891,-3.02343 -2.20454,-0.55677 -4.24606,-1.79595 -5.41992,-3.67188 -1.6848,-2.68999 -2.1349,-5.86069 -2.61328,-8.89844 -0.34197,-2.38167 -0.5164,-4.78011 -0.63867,-7.17968 -0.0533,-1.20656 -0.10233,-2.66507 -0.11329,-3.97071 -0.0556,-8.05348 0.0113,-16.10833 -0.0156,-24.16211 -0.0118,-57.42668 -0.0218,-114.85261 0.008,-172.27929 0.0167,-3.46781 -0.0377,-6.96066 0.13281,-10.36133 0.0676,-1.2549 0.15059,-2.77592 0.28126,-4.13086 0.1389,-1.40156 0.30686,-2.86229 0.53515,-4.14649 0.56429,-3.11069 1.23658,-6.46752 3.60156,-8.85742 2.24679,-2.08066 5.47365,-2.67392 8.41993,-3.3789 7.04152,-1.44239 14.28437,-1.46465 21.45312,-1.71485 v -20.04492 c -20.06504,0.7873 -40.09154,1.43878 -60.18555,1.44531 -8.20133,4.4e-4 -16.40218,0.003 -24.60351,0.004 -29.02011,73.17511 -58.04478,146.34886 -87.06641,219.52344 -29.71968,-73.65773 -59.44307,-147.314 -89.16015,-220.97266 -8.61132,0.49461 -17.34393,0.91534 -25.91993,1.20899 -11.50319,0.36205 -23.01839,0.27325 -34.51953,-0.11133 -6.54092,-0.22407 -13.2545,-0.53026 -19.81836,-0.87305 -2.03449,-0.10745 -4.06907,-0.21401 -6.10351,-0.32226 z m 491.51367,0.0977 -2.21094,0.084 c -22.03493,0.86304 -44.03778,1.50905 -66.10937,1.33398 -17.06486,-0.10185 -34.05934,-0.62756 -51.10547,-1.37109 -1.05692,0.45623 -1.85552,1.42412 -1.78125,2.55468 0.07,5.46365 0.008,10.93645 0.0293,16.4043 -0.0944,0.69489 -0.0676,1.27934 0.84961,1.05664 8.26165,0.33652 16.75222,0.22673 24.64649,2.87109 2.36908,0.74919 4.76264,2.01005 5.87305,4.22461 1.73241,3.11141 2.10203,6.68012 2.54687,10.11329 0.84181,8.34121 0.41426,16.72977 0.52344,25.09375 -8.8e-4,62.41021 0.0133,124.82047 -0.0312,187.23046 -0.14893,5.68518 -0.39868,11.60887 -2.18945,17.15235 -0.81016,2.32168 -2.52956,4.44717 -5.00391,5.35351 -3.39227,1.38681 -7.09531,1.89047 -10.72266,2.42774 -5.50583,0.71445 -10.95115,0.94737 -16.49414,1.29297 v 19.77734 c 13.86286,-0.38539 27.73181,-0.50617 41.59961,-0.5918 12.2569,-0.29753 24.52057,-0.27942 36.7793,-0.44922 20.42956,-0.43293 40.86577,-0.31822 61.29883,-0.27929 17.08374,0.051 34.16432,0.37951 51.24804,0.42187 12.49445,0.0945 25.01145,0.34779 37.46094,0.79688 2.74173,0.53956 5.57226,-1.85433 5.25391,-4.48242 -1.17401,-10.56795 -2.22571,-21.15624 -2.76368,-31.77149 -0.36369,-10.26987 -0.50122,-20.64351 -0.33593,-30.95703 0.10269,-4.78345 0.23295,-9.61098 0.53515,-14.32422 0.30127,-4.85243 0.77368,-9.64873 1.23438,-14.51367 h -22.51953 c -0.44087,4.33433 -0.8894,8.62062 -1.42383,12.91016 -0.76048,5.99908 -1.68501,12.15353 -2.91406,18.15234 -1.5724,7.64032 -3.51887,15.4278 -7.36524,22.45313 -2.96124,5.44255 -7.18908,10.41681 -12.80664,13.60546 -7.52521,4.36969 -16.36522,6.1819 -25.06445,7.03516 -3.99638,0.385 -8.0026,0.54896 -11.96094,0.61328 -8.0938,0.0786 -16.18902,-0.0107 -24.2832,0.0332 -8.22887,-0.0654 -16.50636,0.22682 -24.67969,-0.85546 -2.4204,-0.4319 -5.07654,-0.5948 -7.07812,-2.09375 -2.6077,-1.83313 -3.52206,-4.93898 -4.14454,-7.79688 -0.49625,-2.34205 -0.79071,-4.8825 -0.98632,-7.15625 -0.49253,-6.13621 -0.29952,-12.42881 -0.3418,-18.63281 -6.2e-4,-63.82625 -0.0134,-127.65243 0.0195,-191.47852 0.12979,-5.48516 0.36055,-11.04122 1.87695,-16.36719 0.7726,-2.5263 2.24956,-5.09167 4.89844,-6.23632 2.76887,-1.23948 5.80983,-1.83974 8.81055,-2.35352 2.5954,-0.4151 5.25535,-0.64967 7.79492,-0.80078 3.67418,-0.23846 7.35775,-0.30775 11.03711,-0.44336 z" />
    </mask>
    <linearGradient
       inkscape:collect="always"
       xlink:href="#linearGradient13"
       id="linearGradient2"
       gradientUnits="userSpaceOnUse"
       x1="593.83594"
       y1="269.42969"
       x2="590.8504"
       y2="884.60052" />
  </defs>
  <g
     inkscape:groupmode="layer"
     id="g9"
     inkscape:label="bg"
     style="display:none"
     transform="translate(-234.45215,-245.16252)">
    <path
       id="path8"
       style="display:none;fill:#2e5984;fill-opacity:1;fill-rule:evenodd;stroke-width:18;stroke-linecap:round;stroke-miterlimit:1;paint-order:stroke fill markers"
       d="m 855.39453,245.16602 c -199.16869,0.0203 -398.33761,0.0297 -597.50616,0.0568 -9.51158,0.27208 -18.268,6.87511 -21.73641,15.64013 -1.41395,3.43948 -1.79383,7.19528 -1.68126,10.88505 0.0334,9.83548 -0.004,19.67193 0.007,29.50781 -0.0209,143.48359 0.0205,286.96719 0.0227,430.45078 0.0124,49.15228 7.1e-4,98.30482 0.0281,147.45693 0.13445,5.33229 2.29793,10.51964 5.72727,14.57276 0.31065,0.36373 0.85795,0.97992 1.29514,1.41268 4.60482,4.69635 11.10648,7.56708 17.71679,7.43698 111.70485,-9.1e-4 223.41032,-0.007 335.11541,-0.0154 87.15675,-0.0148 174.31358,-0.01 261.47029,-0.0371 8.19357,0.26345 16.15421,-4.30641 20.59037,-11.1066 2.9938,-4.42773 4.4047,-9.85101 4.10295,-15.17651 -0.0425,-202.65703 -0.0221,-405.31406 -0.0507,-607.97109 -0.51745,-10.80016 -9.09904,-20.55158 -19.68253,-22.61494 -1.77977,-0.37237 -3.60182,-0.52771 -5.41903,-0.49834 z" />
    <path
       id="path1"
       style="display:inline;fill:#00a8a8;fill-opacity:1;fill-rule:evenodd;stroke-width:18;stroke-linecap:round;stroke-miterlimit:1;paint-order:stroke fill markers"
       d="m 855.39453,245.16602 c -199.16869,0.0203 -398.33761,0.0297 -597.50616,0.0568 -9.51158,0.27208 -18.268,6.87511 -21.73641,15.64013 -1.41395,3.43948 -1.79383,7.19528 -1.68126,10.88505 0.0334,9.83548 -0.004,19.67193 0.007,29.50781 -0.0209,143.48359 0.0205,286.96719 0.0227,430.45078 0.0124,49.15228 7.1e-4,98.30482 0.0281,147.45693 0.13445,5.33229 2.29793,10.51964 5.72727,14.57276 0.31065,0.36373 0.85795,0.97992 1.29514,1.41268 4.60482,4.69635 11.10648,7.56708 17.71679,7.43698 111.70485,-9.1e-4 223.41032,-0.007 335.11541,-0.0154 87.15675,-0.0148 174.31358,-0.01 261.47029,-0.0371 8.19357,0.26345 16.15421,-4.30641 20.59037,-11.1066 2.9938,-4.42773 4.4047,-9.85101 4.10295,-15.17651 -0.0425,-202.65703 -0.0221,-405.31406 -0.0507,-607.97109 -0.51745,-10.80016 -9.09904,-20.55158 -19.68253,-22.61494 -1.77977,-0.37237 -3.60182,-0.52771 -5.41903,-0.49834 z"
       inkscape:export-filename="../../ICTML_teal.png"
       inkscape:export-xdpi="120"
       inkscape:export-ydpi="120" />
  </g>
  <g
     inkscape:groupmode="layer"
     id="layer7"
     inkscape:label="grad"
     style="display:none"
     transform="translate(-234.45215,-245.16252)">
    <path
       id="rect13"
       style="display:none;fill:url(#linearGradient2);fill-rule:evenodd;stroke-width:18;stroke-linecap:round;stroke-miterlimit:1;paint-order:stroke fill markers"
       d="m 849.32422,263.1875 c -196.94922,-0.005 -393.89844,-6.8e-4 -590.84766,-0.002 -2.45719,0.25114 -4.71472,1.97604 -5.56377,4.30541 -0.76356,1.67018 -0.34182,3.5206 -0.43623,5.28326 0,201.93529 0,403.87057 0,605.80586 0.30888,3.30308 3.36544,6.10697 6.70474,6.01844 8.52922,-0.0461 17.0633,-0.004 25.59448,-0.0184 190.5832,0 381.16641,0 571.74961,0 3.30309,-0.30888 6.10698,-3.36544 6.01844,-6.70474 -0.046,-8.52921 -0.004,-17.0633 -0.0184,-25.59448 0,-194.3651 0,-388.73021 0,-583.09531 -0.31255,-3.37431 -3.49997,-6.21768 -6.90859,-6.0192 -2.09753,0.007 -4.19506,0.0141 -6.29258,0.0211 z" />
    <path
       id="path15"
       style="fill:url(#linearGradient14);fill-opacity:1;fill-rule:evenodd;stroke-width:18;stroke-linecap:round;stroke-miterlimit:1;paint-order:stroke fill markers"
       d="m 849.32422,263.1875 c -196.94922,-0.005 -393.89844,-6.8e-4 -590.84766,-0.002 -2.45719,0.25114 -4.71472,1.97604 -5.56377,4.30541 -0.76356,1.67018 -0.34182,3.5206 -0.43623,5.28326 0,201.93529 0,403.87057 0,605.80586 0.30888,3.30308 3.36544,6.10697 6.70474,6.01844 8.52922,-0.0461 17.0633,-0.004 25.59448,-0.0184 190.5832,0 381.16641,0 571.74961,0 3.30309,-0.30888 6.10698,-3.36544 6.01844,-6.70474 -0.046,-8.52921 -0.004,-17.0633 -0.0184,-25.59448 0,-194.3651 0,-388.73021 0,-583.09531 -0.31255,-3.37431 -3.49997,-6.21768 -6.90859,-6.0192 -2.09753,0.007 -4.19506,0.0141 -6.29258,0.0211 z"
       mask="url(#mask16)" />
  </g>
  <g
     inkscape:label="ICTML"
     inkscape:groupmode="layer"
     id="layer1"
     style="display:none"
     transform="translate(-234.45215,-245.16252)">
    <g
       id="g2"
       style="display:none">
      <g
         id="g8"
         transform="matrix(1.062968,0,0,1,249.31827,148.17679)"
         style="stroke-width:0.969929">
        <path
           id="path7"
           style="font-size:400px;line-height:1.25;font-family:'Playfair Display';-inkscape-font-specification:'Playfair Display';font-variation-settings:'wght' 400;white-space:pre;fill:#ffffff;stroke-width:0.969929"
           d="m 468.30078,434.98828 c -20.72963,0.86304 -41.42916,1.50975 -62.19328,1.33468 -16.05397,-0.10185 -32.04185,-0.62826 -48.0782,-1.37179 -0.99431,0.45623 -1.74565,1.42413 -1.67578,2.55469 0.0659,5.46365 0.008,10.93801 0.0273,16.40586 -0.0888,0.69489 -0.0634,1.27962 0.79947,1.05692 7.77225,0.33652 15.76102,0.22558 23.18765,2.86994 2.22874,0.74919 4.47925,2.01118 5.52388,4.22574 1.62979,3.11141 1.97849,6.6798 2.39698,10.11297 0.79194,8.34121 0.38974,16.72943 0.49245,25.09341 -8.3e-4,62.41021 0.0121,124.82075 -0.0297,187.23074 -0.14011,5.68518 -0.3741,11.60831 -2.05879,17.15179 -0.76217,2.32168 -2.38067,4.44629 -4.70845,5.35263 -3.19132,1.38681 -6.67553,1.89171 -10.08801,2.42898 -5.17967,0.71445 -10.30087,0.94612 -15.51551,1.29172 0,6.59245 0,13.1849 0,19.77735 13.04166,-0.38539 26.08906,-0.50481 39.13536,-0.59044 11.53083,-0.29753 23.06672,-0.2801 34.59927,-0.44989 19.21936,-0.43293 38.4454,-0.31782 57.66805,-0.27889 16.07174,0.051 32.14113,0.37864 48.21284,0.421 11.75431,0.0945 23.52989,0.34756 35.2419,0.79665 2.57932,0.53956 5.2409,-1.85433 4.94141,-4.48242 -1.10446,-10.56795 -2.09423,-21.15496 -2.60033,-31.77021 -0.34215,-10.26987 -0.4707,-20.64431 -0.3152,-30.95783 0.0966,-4.78345 0.21912,-9.61145 0.50342,-14.32469 0.28342,-4.85243 0.7287,-9.64873 1.16211,-14.51367 -7.06185,0 -14.1237,0 -21.18555,0 -0.41475,4.33433 -0.83707,8.62061 -1.33984,12.91015 -0.71543,5.99908 -1.58599,12.15427 -2.74224,18.15308 -1.47925,7.64032 -3.31084,15.42809 -6.92936,22.45342 -2.78582,5.44256 -6.76305,10.417 -12.04784,13.60565 -7.07943,4.36969 -15.39509,6.18218 -23.579,7.03544 -3.75964,0.385 -7.5288,0.54911 -11.25266,0.61343 -7.61434,0.0786 -15.22952,-0.0113 -22.84422,0.0326 -7.7414,-0.0654 -15.52798,0.22591 -23.21714,-0.85637 -2.27702,-0.4319 -4.77602,-0.59482 -6.65903,-2.09377 -2.45323,-1.83313 -3.31331,-4.93756 -3.89892,-7.79546 -0.46685,-2.34205 -0.74517,-4.88399 -0.9292,-7.15774 -0.46335,-6.13621 -0.28091,-12.42803 -0.32068,-18.63203 -5.9e-4,-63.82625 -0.0123,-127.65273 0.0186,-191.47882 0.1221,-5.48516 0.33869,-11.04152 1.76526,-16.36749 0.72683,-2.52631 2.11712,-5.09186 4.60909,-6.23651 2.60484,-1.23948 5.46438,-1.83977 8.28735,-2.35355 2.44165,-0.4151 4.94462,-0.64963 7.33375,-0.80074 3.45653,-0.23846 6.92141,-0.30775 10.38281,-0.44336 0,-6.67904 0,-13.35808 0,-20.03711 -0.69336,0.028 -1.38672,0.056 -2.08008,0.084 z" />
        <path
           id="path6"
           style="font-size:400px;line-height:1.25;font-family:'Playfair Display';-inkscape-font-specification:'Playfair Display';font-variation-settings:'wght' 400;white-space:pre;fill:#ffffff;stroke-width:0.969929"
           d="m 7.9824219,436.92188 c 0,6.00716 0,12.01432 0,18.02148 7.0806721,0.29348 14.2645891,0.24185 21.1777341,2.00781 0.598444,0.15918 1.496674,0.41517 2.198421,0.66211 2.174043,0.77797 4.514418,1.72235 5.752228,3.80491 1.862185,2.97364 2.231222,6.5621 2.69787,9.9622 0.06692,0.66186 0.137012,1.22603 0.17554,1.79177 0.55978,6.80712 0.356488,13.64514 0.396853,20.46768 -0.003,62.27738 0.01419,124.55511 -0.02557,186.83231 -0.146541,6.32449 -0.486197,12.72769 -2.217308,18.84534 -0.920513,3.04013 -2.939638,5.77118 -5.757329,7.2944 -2.928393,1.56437 -6.245578,2.18193 -9.48005,2.7757 -4.933647,0.81048 -9.938452,0.99363 -14.9183891,1.34288 0,6.77799 0,13.55599 0,20.33398 3.9804811,-0.44612 7.9148841,-0.96772 11.8734381,-1.19753 4.084326,-0.25928 8.107754,-0.29098 12.224555,-0.35652 12.877616,-0.46634 25.865717,-0.44423 38.787632,-0.0232 6.697679,0.11746 13.408051,0.1174 20.0812,0.7818 2.344449,0.2387 4.687512,0.48864 7.033175,0.71731 0,-6.76563 0,-13.53125 0,-20.29688 -7.943797,-0.47072 -15.98544,-0.72173 -23.728516,-2.72656 -2.341425,-0.63534 -4.732002,-1.4203 -6.5438,-3.11004 -2.530512,-2.15 -4.147851,-5.25803 -4.624111,-8.53078 -0.402121,-1.92924 -0.702697,-3.97334 -0.901609,-5.82608 -0.873508,-8.16895 -0.532802,-16.39873 -0.606091,-24.59794 0.0012,-55.70235 0.0025,-111.40469 0.0037,-167.10703 30.230721,77.85406 60.459425,155.70892 90.691405,233.5625 4.89127,0 9.78255,0 14.67383,0 28.747,-77.1971 57.48921,-154.39598 86.23437,-231.59375 -0.003,61.18143 0.009,122.36317 -0.0252,183.54441 -0.028,1.35823 -0.0665,2.59511 -0.11733,3.9634 -0.0352,0.57199 -0.0884,1.64136 -0.12039,2.22084 -0.28645,3.93131 -0.72463,7.90876 -2.00524,11.65534 -0.81028,2.1644 -2.42481,4.06651 -4.61833,4.90218 -3.16879,1.35401 -6.61721,1.85805 -9.99834,2.3889 -5.17967,0.71445 -10.30087,0.94612 -15.51551,1.29172 0,6.72201 0,13.44401 0,20.16602 7.17898,-0.66396 14.37315,-1.23347 21.5867,-1.28371 10.04581,-0.0826 20.08763,-0.43076 30.13439,-0.43802 11.51984,-0.0598 23.03931,0.12352 34.55546,0.38944 6.89513,0.0201 13.8354,0.20431 20.68048,0.72096 2.26316,0.18155 4.70138,0.38504 7.04297,0.58203 0,-6.71289 0,-13.42578 0,-20.13867 -8.07501,-0.55738 -16.27908,-0.78231 -24.11116,-3.02248 -2.07395,-0.55677 -3.99481,-1.79512 -5.09913,-3.67105 -1.585,-2.68999 -2.00764,-5.86137 -2.45768,-8.89912 -0.32171,-2.38167 -0.48653,-4.78122 -0.60156,-7.18079 -0.0501,-1.20656 -0.0967,-2.66423 -0.107,-3.96987 -0.0523,-8.05348 0.0108,-16.1076 -0.0145,-24.16138 -0.0111,-57.42668 -0.0194,-114.85339 0.008,-172.28007 0.0157,-3.46781 -0.0367,-6.95982 0.12377,-10.36049 0.0636,-1.2549 0.14287,-2.77725 0.2658,-4.13219 0.13067,-1.40156 0.28894,-2.86091 0.50371,-4.14511 0.53086,-3.1107 1.16169,-6.46886 3.38657,-8.85876 2.1137,-2.08066 5.14982,-2.67413 7.92157,-3.37911 6.62439,-1.44239 13.43789,-1.46477 20.18198,-1.71497 0,-6.68164 0,-13.36328 0,-20.04492 -18.87643,0.7873 -37.71545,1.43878 -56.61914,1.44531 -7.7155,4.4e-4 -15.43099,0.003 -23.14649,0.004 -27.30102,73.17511 -54.60575,146.34885 -81.9082,219.52343 -27.95915,-73.65773 -55.92219,-147.31399 -83.8789,-220.97265 -8.101198,0.49461 -16.316793,0.91533 -24.384766,1.20898 -10.821762,0.36205 -21.65477,0.27325 -32.474609,-0.11133 -6.153452,-0.22407 -12.469801,-0.52958 -18.644827,-0.87237 -1.913975,-0.10745 -3.8279626,-0.21468 -5.7418921,-0.32294 0,0.70508 0,1.41016 0,2.11524 z" />
      </g>
      <g
         id="g7"
         transform="matrix(0.94344925,0,0,1,250.27041,188.17679)"
         style="stroke-width:1.02953">
        <path
           id="path5"
           style="font-size:400px;line-height:1.25;font-family:'Playfair Display';-inkscape-font-specification:'Playfair Display';font-variation-settings:'wght' 400;white-space:pre;fill:#ffffff;stroke-width:1.02953"
           d="m 409.95898,83.351562 c 0.85402,8.325567 1.65779,16.558965 2.0665,24.926998 0.27447,6.61482 0.59905,13.22727 0.90948,19.84033 0.33553,8.10818 0.30314,16.32862 -0.01,24.49452 -0.21514,5.68201 -0.12031,11.38423 -0.80367,17.03913 -0.26708,2.53592 -0.58459,5.06617 -0.87553,7.59941 7.11394,0 14.22787,0 21.3418,0 0.53365,-5.01487 1.02138,-10.01796 1.629,-14.94816 0.45877,-3.8275 1.00046,-7.74138 1.60928,-11.55574 1.28023,-7.88629 2.79837,-15.89784 5.27902,-23.57029 2.04428,-6.33479 5.51958,-12.40726 10.85823,-16.52063 4.60861,-3.61195 10.36432,-5.30532 16.01732,-6.45817 1.76673,-0.3541 3.50226,-0.62698 5.17781,-0.8373 10.01418,-1.30537 20.13338,-0.80657 30.20161,-0.90792 0.69805,-0.0909 1.27629,-0.062 1.02267,0.79938 -8.6e-4,74.26634 0.0113,148.53295 -0.0247,222.79912 -0.14828,6.50196 -0.44749,13.13719 -2.58119,19.33973 -0.7947,2.37908 -2.14791,4.67536 -4.33426,6.01608 -2.83627,1.86961 -6.28806,2.45767 -9.4932,3.14406 -7.90362,1.47783 -15.95531,1.79376 -23.96707,2.2057 0,6.72917 0,13.45834 0,20.1875 4.16874,-0.34911 8.23086,-0.6874 12.42708,-0.88488 8.08201,-0.44678 16.23717,-0.33844 24.37821,-0.52087 20.71932,-0.4406 41.44689,-0.32443 62.16502,0.11885 5.20793,0.0201 10.42893,0.0888 15.58065,0.2847 3.94879,0.12878 7.89272,0.42998 11.83217,0.67408 0.66359,-0.0248 1.35036,-0.098 1.77923,-0.66672 1.33915,-1.10004 2.06686,-2.85367 1.85553,-4.57936 -0.0402,-4.87033 -0.01,-9.7409 -0.0179,-14.61134 -7.27805,-0.39279 -14.56724,-0.65146 -21.79305,-1.83715 -0.98175,-0.15449 -1.76255,-0.29864 -2.74796,-0.47926 -0.46428,-0.0955 -1.28272,-0.24872 -1.88148,-0.39671 -3.3437,-0.7888 -6.88855,-1.82284 -9.26461,-4.46604 -2.42846,-2.49353 -3.08515,-6.05155 -3.63461,-9.35469 -1.29163,-7.79695 -1.03303,-15.72928 -1.08373,-23.6017 0.012,-71.38968 10e-4,-142.77943 0.005,-214.16914 8.43661,0.0517 16.88447,-0.1914 25.31112,0.31916 7.02735,0.46814 14.2832,1.54359 20.90384,4.25075 5.6789,2.37591 10.44206,6.73323 13.48637,12.06707 3.4935,6.02104 5.09926,12.88252 6.61191,19.61147 2.61108,12.01599 4.02329,24.21774 5.26159,36.47532 0.0713,0.69105 0.14284,1.38207 0.21423,2.0731 6.98959,0 13.97917,0 20.96875,0 -0.52438,-9.20765 -1.11685,-18.36407 -1.40234,-27.58007 -0.0283,-1.65227 -0.0881,-3.52195 -0.10285,-5.25971 -0.12603,-9.84701 0.0766,-19.71237 0.47587,-29.52296 0.61707,-10.50909 1.58296,-20.932808 2.68552,-31.37899 -0.0993,-0.493342 0.48969,-1.504585 -0.13318,-1.603875 -2.20865,-0.408148 -4.44251,-0.876211 -6.70062,-0.645002 -27.62944,0.638385 -55.26281,1.293428 -82.90169,1.188605 -27.05762,-0.01031 -54.11557,0.05562 -81.17293,-0.07127 -22.45585,-0.172424 -44.90468,-0.797247 -67.3552,-1.279067 0.0755,0.750651 0.15104,1.501302 0.22656,2.251953 z" />
        <path
           id="path4"
           style="font-size:400px;line-height:1.25;font-family:'Playfair Display';-inkscape-font-specification:'Playfair Display';font-variation-settings:'wght' 400;white-space:pre;fill:#ffffff;stroke-width:1.02953"
           d="m 275.62109,75.671875 c -19.16174,0.257438 -38.39754,4.445843 -55.51725,13.17802 -19.07951,9.64756 -35.29751,24.566055 -47.24205,42.237545 -11.06719,16.22868 -18.83425,34.63177 -23.15419,53.77603 -4.51338,19.77728 -5.61183,40.21364 -4.53918,60.43232 1.17346,21.24224 5.17107,42.537 13.7644,62.08757 6.8239,15.44758 16.5232,29.68971 28.76348,41.3554 11.09923,10.59946 24.37313,18.85856 38.69448,24.34792 15.96879,6.17948 33.14369,8.85987 50.22166,8.96529 11.04681,0.002 22.17942,-0.80655 32.90482,-3.58507 5.87036,-1.4959 11.54496,-3.70461 16.92355,-6.48662 10.01019,-4.98875 19.62056,-10.76218 28.81078,-17.13061 1.38144,-0.76813 2.75808,-1.70662 4.36755,-1.88678 1.37413,2.31492 1.99401,4.9924 2.55367,7.60302 1.01141,5.25475 1.43771,10.55376 1.97758,15.88721 6.97917,10e-6 13.95833,10e-6 20.9375,0 -1.50466,-27.20801 -1.75009,-54.46155 -1.86381,-81.72139 -0.0283,-8.7595 -0.0307,-17.51908 -0.0503,-26.27861 -6.84245,10e-6 -13.6849,0 -20.52735,0 -0.66289,5.68758 -1.32126,11.35095 -2.10225,16.95409 -1.38557,9.87278 -3.0491,19.92773 -5.87772,29.5823 -2.25033,7.52083 -6.22894,14.41645 -11.00146,20.61033 -1.27457,1.73052 -2.66365,3.37526 -4.14161,4.93532 -0.54683,0.58054 -1.31662,1.3568 -1.98082,1.98433 -0.31317,0.29317 -0.76011,0.71101 -1.07691,0.99677 -5.91208,5.35876 -12.98913,9.34312 -20.50776,11.96741 -7.59963,2.74723 -15.47634,4.78373 -23.49506,5.82883 -1.63362,0.21312 -3.48903,0.39491 -5.2168,0.52148 -3.98474,0.28544 -8.1584,0.2863 -12.03711,-0.0215 -10.15169,-0.80038 -20.16733,-3.78144 -28.98756,-8.89411 -4.91864,-2.97673 -9.46838,-6.54917 -13.59837,-10.54534 -0.28524,-0.29097 -0.85245,-0.84557 -1.24562,-1.23744 -5.86557,-5.94285 -10.89408,-12.70223 -14.93407,-20.00866 -3.88436,-6.96873 -7.07963,-14.50826 -9.65816,-22.12722 -0.26892,-0.83224 -0.66183,-1.99104 -0.93028,-2.83843 -2.07626,-6.47107 -3.73662,-13.07244 -5.02094,-19.74528 -0.33572,-1.80574 -0.70486,-3.80983 -1.00295,-5.70317 -0.47499,-2.91919 -0.90975,-6.0294 -1.25574,-8.97591 -0.72379,-6.06579 -1.18553,-12.04128 -1.47074,-18.13314 -0.11602,-2.51055 -0.21077,-4.99567 -0.24509,-7.44842 -0.11602,-5.16977 -0.0744,-10.34159 0.0468,-15.51085 0.0471,-1.65249 0.11725,-3.52433 0.19227,-5.26004 0.43835,-10.08006 1.44155,-20.36023 3.09067,-30.43411 1.59156,-9.78307 4.05787,-19.57656 7.34072,-28.99677 3.23529,-9.33296 7.2646,-18.43637 12.52677,-26.8127 1.30805,-2.0275 2.67619,-4.03418 4.0816,-5.9039 7.05177,-9.44985 16.07883,-17.61134 26.80002,-22.66841 7.87244,-3.736219 16.57264,-5.630897 25.27775,-5.696044 15.7953,-0.207222 31.66473,3.352187 45.75467,10.522214 8.81895,4.63168 16.35479,11.50974 22.19228,19.54937 3.18246,4.22469 5.84356,8.83028 7.95202,13.67976 1.59559,3.4727 2.8488,7.23151 3.82639,10.83704 2.1571,8.19255 3.67521,16.53726 5.12919,24.87828 0.62715,3.63447 1.22293,7.2742 1.82588,10.91273 6.75782,0 13.51563,0 20.27344,0 0.0495,-25.61313 0.036,-51.23092 0.76758,-76.83593 0.25314,-9.020344 0.68462,-18.11979 1.1543,-27.164067 -6.97787,0 -13.95573,0 -20.9336,0 -0.36047,3.482107 -0.69955,7.145278 -1.125,10.507813 -0.64727,4.333125 -1.32055,8.785044 -3.35742,12.718754 -0.18518,0.70653 -0.74679,0.60282 -1.26603,0.31893 -2.20987,-0.95352 -3.91298,-2.55682 -5.84779,-3.9302 C 342.40101,93.245211 331.1075,87.226732 319.4023,82.347636 305.52793,76.906469 290.40865,75.531617 275.62105,75.671855 Z" />
        <path
           id="text1"
           style="font-size:400px;line-height:1.25;font-family:'Playfair Display';-inkscape-font-specification:'Playfair Display';font-variation-settings:'wght' 400;white-space:pre;fill:#ffffff;stroke-width:1.02953"
           d="m 119.90234,81.087891 c -20.730279,0.863076 -41.430459,1.50971 -62.195235,1.334683 -16.364398,-0.104063 -32.662937,-0.64929 -49.0098394,-1.414762 -0.4305392,1.10204 -0.8944487,2.236038 -0.7050781,3.445313 -0.022758,5.529303 -0.00329,11.060003 -0.00977,16.589845 7.0806725,0.29348 14.2645895,0.24185 21.1777345,2.00781 0.598444,0.15918 1.496674,0.41517 2.198421,0.66211 2.174043,0.77797 4.514418,1.72235 5.752228,3.80491 1.862185,2.97364 2.231222,6.5621 2.69787,9.9622 0.06692,0.66186 0.137012,1.22603 0.17554,1.79177 0.55978,6.80712 0.356488,13.64514 0.396853,20.46768 -0.0022,63.65825 0.01306,127.31681 -0.02683,190.9749 -0.10053,4.25373 -0.307796,8.65648 -1.056861,12.91432 -0.573772,2.82914 -1.154798,5.93762 -3.379404,7.98461 -2.42548,2.1439 -5.756447,2.6388 -8.804033,3.33019 -6.307708,1.19984 -12.738956,1.45705 -19.1315145,1.88075 0,6.72266 0,13.44531 0,20.16797 7.1763895,-0.66376 14.3679375,-1.23325 21.5788915,-1.28372 9.620861,-0.0728 19.237607,-0.40855 28.859164,-0.4314 11.913457,-0.0775 23.826905,0.10022 35.736547,0.38237 6.913766,0.0198 13.924196,0.20068 20.760946,0.72142 2.34798,0.18477 4.70294,0.38445 7.06445,0.58203 0,-6.71289 0,-13.42578 0,-20.13867 -7.4647,-0.49118 -15.00282,-0.78466 -22.308879,-2.52133 -2.165572,-0.58917 -4.524063,-1.18322 -6.013244,-3.00138 -2.052141,-2.26588 -2.530011,-5.40082 -3.097643,-8.29053 -0.286886,-1.65911 -0.462586,-3.33445 -0.609529,-5.01098 -0.02116,-0.38554 -0.0828,-1.19788 -0.119461,-1.7468 -0.44637,-8.20034 -0.173146,-16.41664 -0.251633,-24.62429 9.66e-4,-61.59173 -0.01252,-123.18374 0.02974,-184.77529 0.01581,-1.05529 0.05045,-2.14116 0.08744,-3.11339 0.221199,-4.50572 0.527531,-9.07129 1.83789,-13.41211 0.753594,-2.33208 2.136075,-4.64844 4.45371,-5.69308 2.619188,-1.22859 5.483819,-1.84459 8.317859,-2.35643 2.37885,-0.40451 4.84816,-0.64205 7.16371,-0.79179 2.37633,-0.14769 4.61163,-0.23452 7.00806,-0.3198 1.16732,-0.0428 2.33464,-0.0854 3.50197,-0.12796 0,-6.678383 0,-13.356768 0,-20.035154 -0.69336,0.028 -1.38672,0.05599 -2.08008,0.08398 z" />
      </g>
    </g>
    <path
       id="path3"
       style="font-size:400px;line-height:1.25;font-family:'Playfair Display';-inkscape-font-specification:'Playfair Display';font-variation-settings:'wght' 400;white-space:pre;display:inline;fill:#ffffff;stroke-width:1"
       d="m 510.30469,263.84961 c -18.07813,0.25744 -36.22538,4.44555 -52.37696,13.17773 -18.00055,9.64756 -33.30125,24.56484 -44.57031,42.23633 -10.44134,16.22868 -17.77005,34.63309 -21.8457,53.77735 -4.25814,19.77728 -5.29519,40.21296 -4.2832,60.43164 1.1071,21.24224 4.87895,42.53732 12.98632,62.08789 6.438,15.44758 15.58864,29.68978 27.13672,41.35547 10.47156,10.59946 22.99635,18.85829 36.50782,24.34765 15.06574,6.17948 31.26865,8.85943 47.38085,8.96485 10.4221,0.002 20.92606,-0.80547 31.04493,-3.58399 5.53838,-1.4959 10.89041,-3.70627 15.96484,-6.48828 9.4441,-4.98875 18.51113,-10.76048 27.18164,-17.12891 1.30331,-0.76813 2.60263,-1.70655 4.12109,-1.88672 1.29642,2.31493 1.88215,4.99095 2.41016,7.60157 0.95421,5.25475 1.3559,10.55522 1.86523,15.88867 6.58451,10e-6 13.16942,10e-6 19.75391,0 -1.41957,-27.20801 -1.65247,-54.46282 -1.75976,-81.72266 -0.0267,-8.7595 -0.0284,-17.51781 -0.0469,-26.27734 -6.45551,1e-5 -12.91168,0 -19.36719,0 -0.6254,5.68758 -1.2456,11.34998 -1.98242,16.95312 -1.30722,9.87278 -2.87626,19.92747 -5.54492,29.58204 -2.12308,7.52083 -5.87823,14.41744 -10.38086,20.61132 -1.2025,1.73052 -2.51187,3.37549 -3.90625,4.93555 -0.51591,0.58054 -1.2425,1.35489 -1.86914,1.98242 -0.29546,0.29317 -0.71674,0.71229 -1.01563,0.99805 -5.57774,5.35876 -12.2542,9.34251 -19.34765,11.9668 -7.16986,2.74723 -14.60272,4.78497 -22.16797,5.83007 -1.54124,0.21312 -3.29182,0.39492 -4.92188,0.52149 -3.7594,0.28544 -7.6961,0.28631 -11.35546,-0.0215 -9.57761,-0.80038 -19.02622,-3.78186 -27.34766,-8.89453 -4.64049,-2.97673 -8.93364,-6.54875 -12.83008,-10.54492 -0.2691,-0.29097 -0.80485,-0.84641 -1.17578,-1.23828 -5.53387,-5.94285 -10.27637,-12.70138 -14.08789,-20.00781 -3.6647,-6.96873 -6.68056,-14.50995 -9.11328,-22.12891 -0.25371,-0.83224 -0.62369,-1.9905 -0.87695,-2.83789 -1.95885,-6.47107 -3.5266,-13.0713 -4.73829,-19.74414 -0.31673,-1.80574 -0.66408,-3.81174 -0.94531,-5.70508 -0.44813,-2.91919 -0.85912,-6.0281 -1.18555,-8.97461 -0.68286,-6.06579 -1.11763,-12.04095 -1.38671,-18.13281 -0.10946,-2.51055 -0.19809,-4.99647 -0.23047,-7.44922 -0.10946,-5.16977 -0.0714,-10.3405 0.043,-15.50976 0.0444,-1.65249 0.11087,-3.52601 0.18164,-5.26172 0.41356,-10.08006 1.36015,-20.35972 2.91601,-30.4336 1.50156,-9.78307 3.82858,-19.57588 6.92578,-28.99609 3.05233,-9.33296 6.85377,-18.43617 11.81836,-26.8125 1.23408,-2.0275 2.52564,-4.03458 3.85157,-5.9043 6.65298,-9.44985 15.1683,-17.6109 25.2832,-22.66797 7.42725,-3.73622 15.63482,-5.63212 23.84765,-5.69726 14.90206,-0.20723 29.87482,3.35341 43.16797,10.52344 8.32023,4.63168 15.43012,11.50919 20.9375,19.54882 3.00249,4.22469 5.51274,8.83021 7.50196,13.67969 1.50536,3.4727 2.68901,7.23236 3.61132,10.83789 2.03511,8.19255 3.46614,16.53593 4.8379,24.87695 0.59167,3.63448 1.1538,7.27554 1.72265,10.91407 h 19.12695 c 0.0467,-25.61313 0.0344,-51.23093 0.72461,-76.83594 0.23882,-9.02034 0.64477,-18.11978 1.08789,-27.16406 h -19.74804 c -0.34008,3.48211 -0.66111,7.14527 -1.0625,10.50781 -0.61066,4.33312 -1.24629,8.78504 -3.16797,12.71875 -0.17471,0.70653 -0.70348,0.60225 -1.19336,0.31836 -2.0849,-0.95352 -3.69219,-2.55631 -5.51758,-3.92969 -9.5863,-7.62202 -20.2419,-13.64044 -31.28515,-18.51953 -13.08976,-5.44117 -27.35334,-6.81602 -41.30469,-6.67578 z m -144.94922,5.33203 -1.96289,0.084 c -19.55796,0.86309 -39.08722,1.50902 -58.67774,1.33399 -15.43897,-0.10406 -30.81581,-0.64859 -46.23828,-1.41406 -0.40619,1.10204 -0.84467,2.23604 -0.66601,3.44531 -0.0215,5.52931 -0.004,11.06 -0.01,16.58984 6.68025,0.29348 13.45827,0.24186 19.98047,2.00782 0.56461,0.15918 1.41216,0.41517 2.07422,0.6621 2.0511,0.77797 4.25992,1.72213 5.42773,3.80469 1.75687,2.97364 2.10466,6.56084 2.54492,9.96094 0.0631,0.66186 0.12967,1.22723 0.16602,1.79297 0.52813,6.80712 0.33497,13.64426 0.37305,20.4668 -0.002,63.65825 0.0142,127.31652 -0.0234,190.9746 -0.0948,4.25374 -0.29135,8.65623 -0.99805,12.91407 -0.54133,2.82914 -1.0887,5.93934 -3.1875,7.98633 -2.28832,2.1439 -5.43139,2.63868 -8.30664,3.33007 -5.951,1.19984 -12.01973,1.45716 -18.05078,1.88086 v 20.16797 c 6.77056,-0.66376 13.55621,-1.23468 20.35938,-1.28515 9.07679,-0.0728 18.1491,-0.4088 27.22656,-0.43165 11.23974,-0.0775 22.48066,0.10067 33.7168,0.38282 6.52279,0.0198 13.13581,0.20191 19.58593,0.72265 2.2152,0.18477 4.43806,0.38445 6.66602,0.58203 v -20.13867 c -7.04256,-0.49118 -14.15594,-0.78481 -21.04883,-2.52148 -2.04311,-0.58917 -4.26691,-1.18379 -5.67187,-3.00195 -1.93609,-2.26588 -2.3883,-5.40131 -2.92383,-8.29102 -0.27066,-1.65911 -0.43559,-3.33324 -0.57422,-5.00977 -0.02,-0.38554 -0.0787,-1.19912 -0.11328,-1.74804 -0.42112,-8.20034 -0.16228,-16.4154 -0.23633,-24.62305 9.1e-4,-61.59173 -0.0126,-123.18384 0.0273,-184.77539 0.0149,-1.05529 0.0471,-2.14105 0.082,-3.11328 0.20869,-4.50572 0.49812,-9.07129 1.73438,-13.41211 0.71098,-2.33208 2.01655,-4.64872 4.20312,-5.69336 2.47107,-1.22859 5.17193,-1.84558 7.84571,-2.35742 2.24432,-0.40451 4.57516,-0.64128 6.75976,-0.79102 2.24195,-0.14769 4.35042,-0.23503 6.61133,-0.32031 1.10131,-0.0428 2.20338,-0.0844 3.30469,-0.12695 z m 271.47656,0.0957 c 0.0712,0.75065 0.1436,1.49935 0.21485,2.25 v 0.002 c 0.80573,8.32557 1.56361,16.55775 1.94921,24.92578 0.25895,6.61482 0.56455,13.22678 0.85743,19.83984 0.31655,8.10818 0.28523,16.3302 -0.01,24.4961 -0.20297,5.68201 -0.11309,11.38416 -0.75781,17.03906 -0.25197,2.53592 -0.55168,5.06637 -0.82617,7.59961 h 20.13476 c 0.50347,-5.01487 0.96385,-10.01902 1.53711,-14.94922 0.43282,-3.8275 0.94514,-7.74033 1.51953,-11.55469 1.20783,-7.88629 2.6401,-15.89786 4.98047,-23.57031 1.92867,-6.33479 5.20739,-12.40812 10.24414,-16.52149 4.34799,-3.61195 9.77801,-5.30613 15.11133,-6.45898 1.66682,-0.3541 3.30397,-0.62562 4.88477,-0.83594 9.44786,-1.30537 18.99528,-0.80685 28.49414,-0.9082 0.65858,-0.0909 1.20412,-0.0625 0.96484,0.79883 -8.1e-4,74.26634 0.0106,148.53266 -0.0234,222.79883 -0.1399,6.50196 -0.42251,13.1373 -2.43554,19.33984 -0.74977,2.37908 -2.02714,4.6749 -4.08985,6.01562 -2.67587,1.86961 -5.93119,2.45815 -8.95508,3.14454 -7.45666,1.47783 -15.0546,1.79509 -22.61328,2.20703 v 20.1875 c 3.93299,-0.34911 7.76569,-0.68924 11.72461,-0.88672 7.62497,-0.44678 15.31934,-0.3371 23,-0.51953 19.54763,-0.4406 39.10389,-0.32414 58.65039,0.11914 4.91342,0.0201 9.83884,0.0873 14.69922,0.2832 3.72549,0.12878 7.44544,0.43168 11.16211,0.67578 0.62607,-0.0248 1.27507,-0.0993 1.67969,-0.66797 1.26342,-1.10004 1.94938,-2.85243 1.75,-4.57812 -0.0379,-4.87033 -0.01,-9.74089 -0.0176,-14.61133 -6.86647,-0.39279 -13.74336,-0.6522 -20.56055,-1.83789 -0.92623,-0.15449 -1.6621,-0.2979 -2.59179,-0.47852 -0.43802,-0.0955 -1.21049,-0.25044 -1.77539,-0.39843 -3.15462,-0.7888 -6.49855,-1.82165 -8.74024,-4.46485 -2.29113,-2.49353 -2.9113,-6.05233 -3.42969,-9.35547 -1.21859,-7.79695 -0.97365,-15.72914 -1.02148,-23.60156 0.0113,-71.38968 -1.5e-4,-142.77826 0.004,-214.16797 7.95951,0.0517 15.93073,-0.1922 23.88085,0.31836 6.62995,0.46814 13.47448,1.54284 19.72071,4.25 5.35776,2.37591 9.85246,6.73452 12.72461,12.06836 3.29594,6.02104 4.81117,12.88238 6.23828,19.61133 2.46342,12.01599 3.79462,24.21703 4.96289,36.47461 0.0673,0.69105 0.13577,1.38319 0.20312,2.07422 h 19.78321 c -0.49473,-9.20765 -1.05487,-18.36408 -1.32422,-27.58008 -0.0267,-1.65227 -0.0838,-3.52201 -0.0977,-5.25977 -0.1189,-9.84701 0.0726,-19.71284 0.44922,-29.52343 0.58217,-10.50909 1.49495,-20.93273 2.53516,-31.37891 -0.0937,-0.49334 0.46069,-1.50423 -0.12696,-1.60352 -2.08375,-0.40814 -4.1899,-0.87769 -6.32031,-0.64648 -26.06698,0.63839 -52.13896,1.29427 -78.21484,1.18945 -25.52749,-0.0103 -51.05478,0.0546 -76.58203,-0.0723 -21.18595,-0.17243 -42.36596,-0.79553 -63.54688,-1.27735 z M 257.80469,582.98438 v 2.11523 h -0.002 v 18.02148 c 7.52653,0.29348 15.16327,0.24186 22.51172,2.00782 0.63613,0.15918 1.59196,0.41517 2.33789,0.66211 2.31094,0.77797 4.79753,1.72212 6.11328,3.80468 1.97945,2.97364 2.37116,6.56084 2.86719,9.96094 0.0711,0.66186 0.14655,1.22723 0.1875,1.79297 0.59503,6.80712 0.37898,13.64426 0.42188,20.4668 -0.003,62.27738 0.0149,124.55483 -0.0274,186.83203 -0.15577,6.32449 -0.51731,12.72805 -2.35742,18.8457 -0.97848,3.04013 -3.12403,5.7717 -6.11914,7.29492 -3.11279,1.56437 -6.63998,2.18162 -10.07812,2.77539 -5.24431,0.81048 -10.56392,0.9945 -15.85743,1.34375 v 20.33399 c 4.23112,-0.44612 8.41329,-0.96941 12.6211,-1.19922 4.34151,-0.25928 8.61812,-0.28993 12.99414,-0.35547 13.6885,-0.46634 27.49488,-0.44447 41.23047,-0.0234 7.11941,0.11746 14.25236,0.11685 21.3457,0.78125 2.49207,0.2387 4.98319,0.49008 7.47656,0.71875 v -20.29687 c -8.444,-0.47072 -16.99201,-0.72174 -25.22265,-2.72657 -2.48886,-0.63534 -5.03115,-1.42158 -6.95703,-3.11132 -2.68986,-2.15 -4.40782,-5.2585 -4.91407,-8.53125 -0.42744,-1.92924 -0.74754,-3.97343 -0.95898,-5.82617 -0.92851,-8.16895 -0.56663,-16.39845 -0.64453,-24.59766 0.001,-55.70235 0.003,-111.40313 0.004,-167.10547 32.13429,77.85406 64.26672,155.70892 96.40235,233.5625 h 15.59765 c 30.55714,-77.1971 61.10888,-154.39598 91.66407,-231.59375 -0.003,61.18143 0.0114,122.36173 -0.0254,183.54297 -0.0298,1.35823 -0.071,2.59655 -0.125,3.96484 -0.0374,0.57199 -0.0949,1.64123 -0.12891,2.22071 -0.30448,3.93131 -0.76962,7.90771 -2.13086,11.65429 -0.8613,2.1644 -2.57656,4.06668 -4.9082,4.90235 -3.36832,1.35401 -7.03488,1.85782 -10.62891,2.38867 -5.50583,0.71445 -10.94919,0.94737 -16.49219,1.29297 v 20.16601 c 7.63103,-0.66396 15.27754,-1.23491 22.94532,-1.28515 10.67837,-0.0826 21.35381,-0.43024 32.0332,-0.4375 12.24522,-0.0598 24.48917,0.12275 36.73047,0.38867 7.3293,0.0201 14.70632,0.206 21.98242,0.72265 2.40567,0.18155 4.99729,0.38505 7.48633,0.58204 v -20.13868 c -8.58348,-0.55738 -17.30365,-0.78326 -25.62891,-3.02343 -2.20454,-0.55677 -4.24606,-1.79595 -5.41992,-3.67188 -1.6848,-2.68999 -2.1349,-5.86069 -2.61328,-8.89844 -0.34197,-2.38167 -0.5164,-4.78011 -0.63867,-7.17968 -0.0533,-1.20656 -0.10233,-2.66507 -0.11329,-3.97071 -0.0556,-8.05348 0.0113,-16.10833 -0.0156,-24.16211 -0.0118,-57.42668 -0.0218,-114.85261 0.008,-172.27929 0.0167,-3.46781 -0.0377,-6.96066 0.13281,-10.36133 0.0676,-1.2549 0.15059,-2.77592 0.28126,-4.13086 0.1389,-1.40156 0.30686,-2.86229 0.53515,-4.14649 0.56429,-3.11069 1.23658,-6.46752 3.60156,-8.85742 2.24679,-2.08066 5.47365,-2.67392 8.41993,-3.3789 7.04152,-1.44239 14.28437,-1.46465 21.45312,-1.71485 v -20.04492 c -20.06504,0.7873 -40.09154,1.43878 -60.18555,1.44531 -8.20133,4.4e-4 -16.40218,0.003 -24.60351,0.004 -29.02011,73.17511 -58.04478,146.34886 -87.06641,219.52344 -29.71968,-73.65773 -59.44307,-147.314 -89.16015,-220.97266 -8.61132,0.49461 -17.34393,0.91534 -25.91993,1.20899 -11.50319,0.36205 -23.01839,0.27325 -34.51953,-0.11133 -6.54092,-0.22407 -13.2545,-0.53026 -19.81836,-0.87305 -2.03449,-0.10745 -4.06907,-0.21401 -6.10351,-0.32226 z m 491.51367,0.0977 -2.21094,0.084 c -22.03493,0.86304 -44.03778,1.50905 -66.10937,1.33398 -17.06486,-0.10185 -34.05934,-0.62756 -51.10547,-1.37109 -1.05692,0.45623 -1.85552,1.42412 -1.78125,2.55468 0.07,5.46365 0.008,10.93645 0.0293,16.4043 -0.0944,0.69489 -0.0676,1.27934 0.84961,1.05664 8.26165,0.33652 16.75222,0.22673 24.64649,2.87109 2.36908,0.74919 4.76264,2.01005 5.87305,4.22461 1.73241,3.11141 2.10203,6.68012 2.54687,10.11329 0.84181,8.34121 0.41426,16.72977 0.52344,25.09375 -8.8e-4,62.41021 0.0133,124.82047 -0.0312,187.23046 -0.14893,5.68518 -0.39868,11.60887 -2.18945,17.15235 -0.81016,2.32168 -2.52956,4.44717 -5.00391,5.35351 -3.39227,1.38681 -7.09531,1.89047 -10.72266,2.42774 -5.50583,0.71445 -10.95115,0.94737 -16.49414,1.29297 v 19.77734 c 13.86286,-0.38539 27.73181,-0.50617 41.59961,-0.5918 12.2569,-0.29753 24.52057,-0.27942 36.7793,-0.44922 20.42956,-0.43293 40.86577,-0.31822 61.29883,-0.27929 17.08374,0.051 34.16432,0.37951 51.24804,0.42187 12.49445,0.0945 25.01145,0.34779 37.46094,0.79688 2.74173,0.53956 5.57226,-1.85433 5.25391,-4.48242 -1.17401,-10.56795 -2.22571,-21.15624 -2.76368,-31.77149 -0.36369,-10.26987 -0.50122,-20.64351 -0.33593,-30.95703 0.10269,-4.78345 0.23295,-9.61098 0.53515,-14.32422 0.30127,-4.85243 0.77368,-9.64873 1.23438,-14.51367 h -22.51953 c -0.44087,4.33433 -0.8894,8.62062 -1.42383,12.91016 -0.76048,5.99908 -1.68501,12.15353 -2.91406,18.15234 -1.5724,7.64032 -3.51887,15.4278 -7.36524,22.45313 -2.96124,5.44255 -7.18908,10.41681 -12.80664,13.60546 -7.52521,4.36969 -16.36522,6.1819 -25.06445,7.03516 -3.99638,0.385 -8.0026,0.54896 -11.96094,0.61328 -8.0938,0.0786 -16.18902,-0.0107 -24.2832,0.0332 -8.22887,-0.0654 -16.50636,0.22682 -24.67969,-0.85546 -2.4204,-0.4319 -5.07654,-0.5948 -7.07812,-2.09375 -2.6077,-1.83313 -3.52206,-4.93898 -4.14454,-7.79688 -0.49625,-2.34205 -0.79071,-4.8825 -0.98632,-7.15625 -0.49253,-6.13621 -0.29952,-12.42881 -0.3418,-18.63281 -6.2e-4,-63.82625 -0.0134,-127.65243 0.0195,-191.47852 0.12979,-5.48516 0.36055,-11.04122 1.87695,-16.36719 0.7726,-2.5263 2.24956,-5.09167 4.89844,-6.23632 2.76887,-1.23948 5.80983,-1.83974 8.81055,-2.35352 2.5954,-0.4151 5.25535,-0.64967 7.79492,-0.80078 3.67418,-0.23846 7.35775,-0.30775 11.03711,-0.44336 z" />
  </g>
  <g
     inkscape:groupmode="layer"
     id="layer8"
     inkscape:label="ICTML cut"
     transform="translate(-234.45215,-245.16252)">
    <path
       id="path17"
       style="display:inline;fill:#00a8a8;fill-opacity:1;fill-rule:evenodd;stroke-width:18;stroke-linecap:round;stroke-miterlimit:1;paint-order:stroke fill markers"
       d="m 855.39453,245.16602 c -199.16869,0.0203 -398.33731,0.0295 -597.50586,0.0566 -9.51158,0.27208 -18.26792,6.8756 -21.73633,15.64062 -1.41395,3.43948 -1.79421,7.195 -1.68164,10.88477 0.0334,9.83548 -0.003,19.67193 0.008,29.50781 -0.0209,143.48359 0.0193,286.96758 0.0215,430.45117 0.0124,49.15228 0.002,98.30492 0.0293,147.45703 0.13445,5.33229 2.29722,10.51915 5.72656,14.57227 0.31065,0.36373 0.85773,0.97935 1.29492,1.41211 4.60482,4.69635 11.10649,7.5676 17.7168,7.4375 111.70485,-9.1e-4 223.41014,-0.007 335.11523,-0.0156 87.15675,-0.0148 174.314,-0.01 261.47071,-0.0371 8.19357,0.26345 16.15368,-4.30528 20.58984,-11.10547 2.9938,-4.42773 4.40527,-9.85223 4.10352,-15.17773 -0.0425,-202.65703 -0.0222,-405.31367 -0.0508,-607.9707 -0.51745,-10.80016 -9.09815,-20.55188 -19.68164,-22.61524 -1.77977,-0.37237 -3.60271,-0.52741 -5.41992,-0.49804 z m -345.08984,18.68359 c 13.95135,-0.14024 28.21493,1.23461 41.30469,6.67578 11.04325,4.87909 21.69885,10.89751 31.28515,18.51953 1.82539,1.37338 3.43268,2.97617 5.51758,3.92969 0.48988,0.28389 1.01865,0.38817 1.19336,-0.31836 1.92168,-3.93371 2.55731,-8.38563 3.16797,-12.71875 0.40139,-3.36254 0.72242,-7.0257 1.0625,-10.50781 h 19.74804 c -0.44312,9.04428 -0.84907,18.14372 -1.08789,27.16406 -0.69021,25.60501 -0.67791,51.22281 -0.72461,76.83594 h -19.12695 c -0.56885,-3.63853 -1.13098,-7.27959 -1.72265,-10.91407 -1.37176,-8.34102 -2.80279,-16.6844 -4.8379,-24.87695 -0.92231,-3.60553 -2.10596,-7.36519 -3.61132,-10.83789 -1.98922,-4.84948 -4.49947,-9.455 -7.50196,-13.67969 -5.50738,-8.03963 -12.61727,-14.91714 -20.9375,-19.54882 -13.29315,-7.17003 -28.26591,-10.73067 -43.16797,-10.52344 -8.21283,0.0651 -16.4204,1.96104 -23.84765,5.69726 -10.1149,5.05707 -18.63022,13.21812 -25.2832,22.66797 -1.32593,1.86972 -2.61749,3.8768 -3.85157,5.9043 -4.96459,8.37633 -8.76603,17.47954 -11.81836,26.8125 -3.0972,9.42021 -5.42422,19.21302 -6.92578,28.99609 -1.55586,10.07388 -2.50245,20.35354 -2.91601,30.4336 -0.0708,1.73571 -0.13724,3.60923 -0.18164,5.26172 -0.1144,5.16926 -0.15243,10.33999 -0.043,15.50976 0.0324,2.45275 0.12101,4.93867 0.23047,7.44922 0.26908,6.09186 0.70385,12.06702 1.38671,18.13281 0.32643,2.94651 0.73742,6.05542 1.18555,8.97461 0.28123,1.89334 0.62858,3.89934 0.94531,5.70508 1.21169,6.67284 2.77944,13.27307 4.73829,19.74414 0.25325,0.84739 0.62324,2.00565 0.87695,2.83789 2.43272,7.61896 5.44858,15.16018 9.11328,22.12891 3.81152,7.30643 8.55402,14.06496 14.08789,20.00781 0.37093,0.39187 0.90668,0.94731 1.17578,1.23828 3.89644,3.99617 8.18959,7.56819 12.83008,10.54492 8.32144,5.11267 17.77005,8.09415 27.34766,8.89453 3.65936,0.30781 7.59606,0.30693 11.35546,0.0215 1.63006,-0.12657 3.38064,-0.30837 4.92188,-0.52149 7.56525,-1.0451 14.99811,-3.08284 22.16797,-5.83007 7.09345,-2.62429 13.76991,-6.60804 19.34765,-11.9668 0.29889,-0.28576 0.72017,-0.70488 1.01563,-0.99805 0.62664,-0.62753 1.35323,-1.40188 1.86914,-1.98242 1.39438,-1.56006 2.70375,-3.20503 3.90625,-4.93555 4.50263,-6.19388 8.25778,-13.09049 10.38086,-20.61132 2.66866,-9.65457 4.2377,-19.70926 5.54492,-29.58204 0.73682,-5.60314 1.35702,-11.26554 1.98242,-16.95312 6.45551,0 12.91168,10e-6 19.36719,0 0.0185,8.75953 0.0202,17.51784 0.0469,26.27734 0.10729,27.25984 0.34019,54.51465 1.75976,81.72266 -6.58449,1e-5 -13.16939,1e-5 -19.75391,0 -0.50933,-5.33345 -0.91102,-10.63392 -1.86523,-15.88867 -0.52801,-2.61062 -1.11374,-5.28663 -2.41016,-7.60157 -1.51846,0.18018 -2.81778,1.11859 -4.12109,1.88672 -8.67051,6.36843 -17.73754,12.14016 -27.18164,17.12891 -5.07443,2.78201 -10.42646,4.99238 -15.96484,6.48828 -10.11887,2.77852 -20.62283,3.58599 -31.04493,3.58399 -16.1122,-0.10542 -32.31511,-2.78537 -47.38085,-8.96485 -13.51147,-5.48936 -26.03626,-13.74819 -36.50782,-24.34765 -11.54808,-11.66569 -20.69872,-25.90789 -27.13672,-41.35547 -8.10737,-19.55057 -11.87922,-40.84565 -12.98632,-62.08789 -1.01199,-20.21868 0.0251,-40.65436 4.2832,-60.43164 4.07565,-19.14426 11.40436,-37.54867 21.8457,-53.77735 11.26906,-17.67149 26.56976,-32.58877 44.57031,-42.23633 16.15158,-8.73218 34.29883,-12.92029 52.37696,-13.17773 z m -144.94922,5.33203 v 20.03516 c -1.10131,0.0426 -2.20338,0.0842 -3.30469,0.12695 -2.26091,0.0853 -4.36938,0.17262 -6.61133,0.32031 -2.1846,0.14974 -4.51544,0.38651 -6.75976,0.79102 -2.67378,0.51184 -5.37464,1.12883 -7.84571,2.35742 -2.18657,1.04464 -3.49214,3.36128 -4.20312,5.69336 -1.23626,4.34082 -1.52569,8.90639 -1.73438,13.41211 -0.0349,0.97223 -0.0671,2.05799 -0.082,3.11328 -0.0399,61.59155 -0.0264,123.18366 -0.0273,184.77539 0.074,8.20765 -0.18479,16.42271 0.23633,24.62305 0.0346,0.54892 0.0933,1.3625 0.11328,1.74804 0.13863,1.67653 0.30356,3.35066 0.57422,5.00977 0.53553,2.88971 0.98774,6.02514 2.92383,8.29102 1.40496,1.81816 3.62876,2.41278 5.67187,3.00195 6.89289,1.73667 14.00627,2.0303 21.04883,2.52148 v 20.13867 c -2.22796,-0.19758 -4.45082,-0.39726 -6.66602,-0.58203 -6.45012,-0.52074 -13.06314,-0.70285 -19.58593,-0.72265 -11.23614,-0.28215 -22.47706,-0.46031 -33.7168,-0.38282 -9.07746,0.0228 -18.14977,0.35885 -27.22656,0.43165 -6.80317,0.0505 -13.58882,0.62139 -20.35938,1.28515 v -20.16797 c 6.03105,-0.4237 12.09978,-0.68102 18.05078,-1.88086 2.87525,-0.69139 6.01832,-1.18617 8.30664,-3.33007 2.0988,-2.04699 2.64617,-5.15719 3.1875,-7.98633 0.7067,-4.25784 0.90325,-8.66033 0.99805,-12.91407 0.0376,-63.65807 0.0214,-127.31635 0.0234,-190.9746 -0.0381,-6.82254 0.15508,-13.65968 -0.37305,-20.4668 -0.0364,-0.56574 -0.10291,-1.13111 -0.16602,-1.79297 -0.44025,-3.4001 -0.78805,-6.9873 -2.54492,-9.96094 -1.16781,-2.08256 -3.37663,-3.02672 -5.42773,-3.80469 -0.66206,-0.24693 -1.50961,-0.50292 -2.07422,-0.6621 -6.5222,-1.76596 -13.30022,-1.71434 -19.98047,-2.00782 0.006,-5.52984 -0.0117,-11.06053 0.01,-16.58984 -0.17866,-1.20927 0.25982,-2.34327 0.66601,-3.44531 15.42247,0.76547 30.79931,1.31 46.23828,1.41406 19.59052,0.17503 39.11978,-0.4709 58.67774,-1.33399 z m 271.47656,0.0957 c 21.18092,0.48182 42.36093,1.10492 63.54688,1.27735 25.52725,0.1269 51.05454,0.062 76.58203,0.0723 26.07588,0.10482 52.14786,-0.55106 78.21484,-1.18945 2.13041,-0.23121 4.23656,0.23834 6.32031,0.64648 0.58765,0.0993 0.0333,1.11018 0.12696,1.60352 -1.04021,10.44618 -1.95299,20.86982 -2.53516,31.37891 -0.37662,9.81059 -0.56812,19.67642 -0.44922,29.52343 0.0139,1.73776 0.071,3.6075 0.0977,5.25977 0.26935,9.216 0.82949,18.37243 1.32422,27.58008 h -19.78321 c -0.0674,-0.69103 -0.13582,-1.38317 -0.20312,-2.07422 -1.16827,-12.25758 -2.49947,-24.45862 -4.96289,-36.47461 -1.42711,-6.72895 -2.94234,-13.59029 -6.23828,-19.61133 -2.87215,-5.33384 -7.36685,-9.69245 -12.72461,-12.06836 -6.24623,-2.70716 -13.09076,-3.78186 -19.72071,-4.25 -7.95012,-0.51056 -15.92134,-0.26666 -23.88085,-0.31836 -0.004,71.38971 0.007,142.77829 -0.004,214.16797 0.0478,7.87242 -0.19711,15.80461 1.02148,23.60156 0.51839,3.30314 1.13856,6.86194 3.42969,9.35547 2.24169,2.6432 5.58561,3.67605 8.74024,4.46485 0.56489,0.14799 1.33737,0.30293 1.77539,0.39843 0.92969,0.18062 1.66556,0.32403 2.59179,0.47852 6.81719,1.18569 13.69408,1.4451 20.56055,1.83789 0.008,4.87044 -0.0203,9.741 0.0176,14.61133 0.19938,1.72569 -0.48658,3.47808 -1.75,4.57812 -0.40462,0.56867 -1.05362,0.64317 -1.67969,0.66797 -3.71667,-0.2441 -7.43662,-0.547 -11.16211,-0.67578 -4.86038,-0.1959 -9.7858,-0.2631 -14.69922,-0.2832 -19.5465,-0.44328 -39.10276,-0.55974 -58.65039,-0.11914 -7.68066,0.18243 -15.37503,0.0727 -23,0.51953 -3.95892,0.19748 -7.79162,0.53761 -11.72461,0.88672 v -20.1875 c 7.55868,-0.41194 15.15662,-0.7292 22.61328,-2.20703 3.02389,-0.68639 6.27921,-1.27493 8.95508,-3.14454 2.06271,-1.34072 3.34007,-3.63654 4.08985,-6.01562 2.01303,-6.20254 2.29564,-12.83788 2.43554,-19.33984 0.034,-74.26617 0.0226,-148.53249 0.0234,-222.79883 0.23928,-0.86133 -0.30626,-0.88973 -0.96484,-0.79883 -9.49886,0.10135 -19.04629,-0.39717 -28.49414,0.9082 -1.5808,0.21032 -3.21795,0.48184 -4.88477,0.83594 -5.33332,1.15285 -10.76334,2.84703 -15.11133,6.45898 -5.03675,4.11337 -8.31547,10.1867 -10.24414,16.52149 -2.34037,7.67245 -3.77264,15.68402 -4.98047,23.57031 -0.57439,3.81436 -1.08671,7.72719 -1.51953,11.55469 -0.57326,4.9302 -1.03364,9.93435 -1.53711,14.94922 H 638.2597 c 0.27449,-2.53324 0.5742,-5.06369 0.82617,-7.59961 0.64472,-5.6549 0.55484,-11.35705 0.75781,-17.03906 0.29523,-8.1659 0.32632,-16.38792 0.01,-24.4961 -0.29288,-6.61306 -0.59848,-13.22502 -0.85743,-19.83984 -0.3856,-8.36803 -1.14348,-16.60021 -1.94921,-24.92578 v -0.002 c -0.0713,-0.75065 -0.14365,-1.49935 -0.21485,-2.25 z M 257.80469,582.98438 c 2.03444,0.10824 4.06902,0.21481 6.10351,0.32226 6.56386,0.34279 13.27744,0.64898 19.81836,0.87305 11.50114,0.38458 23.01634,0.47338 34.51953,0.11133 8.576,-0.29365 17.30861,-0.71438 25.91993,-1.20899 29.71708,73.65866 59.44047,147.31493 89.16015,220.97266 29.02163,-73.17458 58.0463,-146.34833 87.06641,-219.52344 8.20133,-10e-4 16.40218,-0.003 24.60351,-0.004 20.09401,-0.007 40.12051,-0.65801 60.18555,-1.44531 v 20.04492 c -7.16875,0.2502 -14.4116,0.27246 -21.45312,1.71485 -2.94628,0.70498 -6.17314,1.29824 -8.41993,3.3789 -2.36498,2.3899 -3.03727,5.74674 -3.60156,8.85742 -0.22829,1.28421 -0.39625,2.74493 -0.53515,4.14649 -0.13067,1.35494 -0.21366,2.87596 -0.28126,4.13086 -0.17051,3.40067 -0.11611,6.89352 -0.13281,10.36133 -0.0298,57.42668 -0.0196,114.85261 -0.008,172.27929 0.0269,8.05378 -0.04,16.10863 0.0156,24.16211 0.011,1.30564 0.06,2.76415 0.11329,3.97071 0.12227,2.39957 0.2967,4.79801 0.63867,7.17968 0.47838,3.03775 0.92848,6.20845 2.61328,8.89844 1.17386,1.87593 3.21538,3.11511 5.41992,3.67188 8.32526,2.24017 17.04543,2.46605 25.62891,3.02343 v 20.13868 c -2.48904,-0.19699 -5.08066,-0.40049 -7.48633,-0.58204 -7.2761,-0.51665 -14.65312,-0.70255 -21.98242,-0.72265 -12.2413,-0.26592 -24.48525,-0.44847 -36.73047,-0.38867 -10.67939,0.007 -21.35483,0.3549 -32.0332,0.4375 -7.66778,0.0502 -15.31429,0.62119 -22.94532,1.28515 V 858.9043 c 5.543,-0.3456 10.98636,-0.57852 16.49219,-1.29297 3.59403,-0.53085 7.26059,-1.03466 10.62891,-2.38867 2.33164,-0.83567 4.0469,-2.73795 4.9082,-4.90235 1.36124,-3.74658 1.82638,-7.72298 2.13086,-11.65429 0.034,-0.57948 0.0915,-1.64872 0.12891,-2.22071 0.054,-1.36829 0.0952,-2.60661 0.125,-3.96484 0.0368,-61.18124 0.0224,-122.36154 0.0254,-183.54297 -30.55519,77.19777 -61.10693,154.39665 -91.66407,231.59375 h -15.59765 c -32.13563,-77.85358 -64.26806,-155.70844 -96.40235,-233.5625 -10e-4,55.70234 -0.003,111.40312 -0.004,167.10547 0.0779,8.19921 -0.28398,16.42871 0.64453,24.59766 0.21144,1.85273 0.53154,3.89693 0.95898,5.82617 0.50625,3.27275 2.22421,6.38125 4.91407,8.53125 1.92588,1.68974 4.46817,2.47598 6.95703,3.11132 8.23064,2.00484 16.77865,2.25585 25.22265,2.72657 v 20.29687 c -2.49337,-0.22867 -4.98449,-0.48005 -7.47656,-0.71875 -7.09334,-0.6644 -14.22629,-0.66379 -21.3457,-0.78125 -13.73559,-0.42107 -27.54197,-0.4429 -41.23047,0.0234 -4.37602,0.0655 -8.65263,0.0962 -12.99414,0.35547 -4.20781,0.22981 -8.38998,0.7531 -12.6211,1.19922 V 858.9082 c 5.29351,-0.34925 10.61312,-0.53327 15.85743,-1.34375 3.43814,-0.59377 6.96533,-1.21102 10.07812,-2.77539 2.99511,-1.52322 5.14066,-4.25479 6.11914,-7.29492 1.84011,-6.11765 2.20165,-12.52121 2.35742,-18.8457 0.0423,-62.2772 0.0244,-124.55465 0.0274,-186.83203 -0.0429,-6.82254 0.17315,-13.65968 -0.42188,-20.4668 -0.041,-0.56574 -0.1164,-1.13111 -0.1875,-1.79297 -0.49603,-3.4001 -0.88774,-6.9873 -2.86719,-9.96094 -1.31574,-2.08256 -3.80234,-3.02671 -6.11328,-3.80468 -0.74593,-0.24694 -1.70176,-0.50293 -2.33789,-0.66211 -7.34845,-1.76596 -14.98519,-1.71434 -22.51172,-2.00782 v -18.02148 h 0.002 z m 491.51367,0.0977 v 20.03711 c -3.67936,0.13561 -7.36293,0.2049 -11.03711,0.44336 -2.53957,0.15111 -5.19952,0.38568 -7.79492,0.80078 -3.00072,0.51378 -6.04168,1.11404 -8.81055,2.35352 -2.64888,1.14465 -4.12584,3.71003 -4.89844,6.23632 -1.5164,5.32598 -1.74716,10.88203 -1.87695,16.36719 -0.0329,63.82609 -0.0202,127.65227 -0.0195,191.47852 0.0423,6.204 -0.15073,12.4966 0.3418,18.63281 0.19561,2.27375 0.49007,4.8142 0.98632,7.15625 0.62248,2.8579 1.53684,5.96375 4.14454,7.79688 2.00158,1.49895 4.65772,1.66185 7.07812,2.09375 8.17333,1.08228 16.45082,0.79006 24.67969,0.85546 8.09418,-0.0439 16.1894,0.0454 24.2832,-0.0332 3.95834,-0.0643 7.96456,-0.22828 11.96094,-0.61328 8.69923,-0.85326 17.53924,-2.66547 25.06445,-7.03516 5.61756,-3.18865 9.8454,-8.16292 12.80664,-13.60546 3.84637,-7.02534 5.79284,-14.81281 7.36524,-22.45313 1.22905,-5.99881 2.15358,-12.15326 2.91406,-18.15234 0.53443,-4.28954 0.98296,-8.57583 1.42383,-12.91016 h 22.51953 c -0.4607,4.86494 -0.93311,9.66124 -1.23438,14.51367 -0.3022,4.71324 -0.43246,9.54077 -0.53515,14.32422 -0.16529,10.31352 -0.0278,20.68716 0.33593,30.95703 0.53797,10.61525 1.58967,21.20354 2.76368,31.77149 0.31835,2.62809 -2.51218,5.02198 -5.25391,4.48242 -12.44949,-0.44909 -24.96649,-0.70238 -37.46094,-0.79688 -17.08372,-0.0424 -34.1643,-0.37087 -51.24804,-0.42187 -20.43306,-0.0389 -40.86927,-0.15364 -61.29883,0.27929 -12.25873,0.16981 -24.5224,0.15169 -36.7793,0.44922 -13.8678,0.0856 -27.73675,0.20641 -41.59961,0.5918 V 858.9043 c 5.54299,-0.3456 10.98831,-0.57852 16.49414,-1.29297 3.62735,-0.53727 7.33039,-1.04093 10.72266,-2.42774 2.47435,-0.90634 4.19375,-3.03183 5.00391,-5.35351 1.79077,-5.54348 2.04052,-11.46717 2.18945,-17.15235 0.0445,-62.40999 0.0304,-124.82025 0.0312,-187.23046 -0.10918,-8.36398 0.31837,-16.75254 -0.52344,-25.09375 -0.44484,-3.43317 -0.81446,-7.00188 -2.54687,-10.11329 -1.11041,-2.21456 -3.50397,-3.47542 -5.87305,-4.22461 -7.89427,-2.64435 -16.38484,-2.53457 -24.64649,-2.87109 -0.91721,0.2227 -0.944,-0.36175 -0.84961,-1.05664 -0.0213,-5.46785 0.0407,-10.94065 -0.0293,-16.4043 -0.0743,-1.13056 0.72433,-2.09845 1.78125,-2.55468 17.04613,0.74353 34.04061,1.26924 51.10547,1.37109 22.07159,0.17507 44.07444,-0.47094 66.10937,-1.33398 z"
       inkscape:export-filename="ICTML_teal_cut.png"
       inkscape:export-xdpi="120"
       inkscape:export-ydpi="120" />
  </g>
</svg>
